<svg xmlns="http://www.w3.org/2000/svg" width="135" height="29" fill="none" aria-hidden="true"><g fill="#232A31" clip-path="url(#engadgetLogo_svg__a)"><path fill-rule="evenodd" d="M135 10.681h-8.034v12.727h-2.677V.5h2.677v7.635H135z" clip-rule="evenodd"></path><path d="M119.989 8.135h-10.596c-1.463 0-2.958 1.318-2.958 2.71v10.071c0 1.392 1.497 2.492 2.958 2.492h10.431v-2.544h-10.712V18.32h10.877c1.464 0 2.515-1.107 2.515-2.499v-4.975c-.003-1.39-1.051-2.71-2.515-2.71m-.165 7.638h-10.712V10.68h10.712zM102.328 8.135H91.732c-1.463 0-2.26 1.318-2.26 2.71v10.071c0 1.392.797 2.492 2.26 2.492h10.239v2.546h-9.82V28.5h10.177c1.464 0 2.32-1.217 2.32-2.608V10.845c0-1.39-.856-2.71-2.32-2.71m-.357 12.727h-9.82v-10.18h9.82zM84.794.5v7.635H74.456c-1.463 0-3.053 1.319-3.053 2.71v10.011c0 1.391 1.59 2.552 3.053 2.552h13.018V.5zm0 20.363H74.082V10.68h10.712zM67.097 8.135h-7.948c-2.927 0-5.6 2.447-5.6 5.228v7.553c0 1.392 1.489 2.492 2.952 2.492h4.675c2.353 0 4.872-.948 5.765-2.492v2.492h2.677V10.845c0-1.39-1.058-2.71-2.521-2.71m-.156 12.73H56.229v-7.5c0-1.392 1.459-2.682 2.922-2.682h7.79zM49.141 8.135H38.545c-1.463 0-2.85 1.318-2.85 2.71v10.01c0 1.392 1.387 2.553 2.85 2.553h10.54v2.546H38.373V28.5h10.768c1.464 0 2.621-1.157 2.621-2.548V10.845c.002-1.39-1.157-2.71-2.62-2.71m-.056 12.727H38.373v-10.18h10.712z"></path><path fill-rule="evenodd" d="M28.538 8.135c2.924 0 5.37 2.447 5.37 5.228v10.045h-2.677V13.365c0-1.392-1.23-2.682-2.693-2.682H20.52V23.41h-2.68V10.845c0-1.392 1.286-2.71 2.75-2.71z" clip-rule="evenodd"></path><path d="M13.23 8.135H2.634C1.264 8.135.136 9.296 0 10.586v10.587c.136 1.266 1.264 2.235 2.634 2.235h10.741v-2.544H2.664V18.32H13.23c1.463 0 2.824-1.107 2.824-2.499v-4.975c0-1.39-1.361-2.71-2.825-2.71m.148 7.638H2.664V10.68h10.711v5.092z"></path></g><defs><clipPath id="engadgetLogo_svg__a"><path fill="#fff" d="M0 .5h135v28H0z"></path></clipPath></defs></svg>