<svg width="512" height="512" viewBox="0 0 512 512" fill="none" xmlns="http://www.w3.org/2000/svg">
<rect width="512" height="512" fill="#336AEA"/>
<path d="M214.857 405.989C214.857 411.52 210.377 416 204.846 416H106.011C100.48 416 96 411.52 96 405.989V375.726C96 370.194 100.48 365.714 106.011 365.714H204.846C210.377 365.714 214.857 370.194 214.857 375.726V405.989ZM405.989 169.143C411.52 169.143 416 164.663 416 159.132V106.012C416 100.48 411.52 96.0001 405.989 96.0001H106.011C100.48 96.0001 96 100.48 96 106.012V328.274C96 333.806 100.48 338.286 106.011 338.286H204.846C210.377 338.286 214.857 333.806 214.857 328.274V302.583C214.857 297.052 219.337 292.572 224.869 292.572H405.989C411.52 292.572 416 288.092 416 282.56V229.44C416 223.909 411.52 219.429 405.989 219.429H224.869C219.337 219.429 214.857 214.949 214.857 209.417V179.154C214.857 173.623 219.337 169.143 224.869 169.143H405.989Z" fill="white"/>
</svg>
